<svg width="992" height="294" viewBox="0 0 992 294" fill="none" xmlns="http://www.w3.org/2000/svg">
<rect width="992" height="294" rx="10" fill="#282D3A"/>
<path d="M46.17 54.71H44.082L43.758 56.69H45.864L45.648 57.986H43.542L43.02 61.1H41.652L42.174 57.986H39.978L39.456 61.1H38.07L38.592 57.986H36.504L36.72 56.69H38.808L39.132 54.71H37.026L37.242 53.396H39.348L39.87 50.3H41.256L40.734 53.396H42.93L43.452 50.3H44.82L44.298 53.396H46.386L46.17 54.71ZM42.39 56.69L42.714 54.71H40.518L40.194 56.69H42.39ZM48.8784 51.362C48.5784 51.362 48.3264 51.26 48.1224 51.056C47.9184 50.852 47.8164 50.606 47.8164 50.318C47.8164 50.03 47.9184 49.784 48.1224 49.58C48.3264 49.364 48.5784 49.256 48.8784 49.256C49.1664 49.256 49.4124 49.364 49.6164 49.58C49.8204 49.784 49.9224 50.03 49.9224 50.318C49.9224 50.606 49.8204 50.852 49.6164 51.056C49.4124 51.26 49.1664 51.362 48.8784 51.362ZM48.0864 62V53H49.6524V62H48.0864ZM56.5235 52.766C57.5795 52.766 58.4255 53.102 59.0615 53.774C59.6975 54.434 60.0155 55.334 60.0155 56.474V62H58.4495V56.564C58.4495 55.832 58.2515 55.268 57.8555 54.872C57.4595 54.464 56.9135 54.26 56.2175 54.26C55.4375 54.26 54.8075 54.506 54.3275 54.998C53.8475 55.478 53.6075 56.222 53.6075 57.23V62H52.0415V53H53.6075V54.296C54.2435 53.276 55.2155 52.766 56.5235 52.766ZM66.4317 62.234C65.0757 62.234 63.9477 61.784 63.0477 60.884C62.1477 59.972 61.6977 58.844 61.6977 57.5C61.6977 56.156 62.1477 55.034 63.0477 54.134C63.9477 53.222 65.0757 52.766 66.4317 52.766C67.3197 52.766 68.1177 52.982 68.8257 53.414C69.5337 53.834 70.0617 54.404 70.4097 55.124L69.0957 55.88C68.8677 55.4 68.5137 55.016 68.0337 54.728C67.5657 54.44 67.0317 54.296 66.4317 54.296C65.5317 54.296 64.7757 54.602 64.1637 55.214C63.5637 55.826 63.2637 56.588 63.2637 57.5C63.2637 58.4 63.5637 59.156 64.1637 59.768C64.7757 60.38 65.5317 60.686 66.4317 60.686C67.0317 60.686 67.5717 60.548 68.0517 60.272C68.5317 59.984 68.8977 59.6 69.1497 59.12L70.4817 59.894C70.0977 60.602 69.5457 61.172 68.8257 61.604C68.1057 62.024 67.3077 62.234 66.4317 62.234ZM72.0278 62V48.86H73.5938V62H72.0278ZM82.1929 53H83.7589V62H82.1929V60.704C81.5569 61.724 80.5849 62.234 79.2769 62.234C78.2209 62.234 77.3749 61.904 76.7389 61.244C76.1029 60.572 75.7849 59.666 75.7849 58.526V53H77.3509V58.436C77.3509 59.168 77.5489 59.738 77.9449 60.146C78.3409 60.542 78.8869 60.74 79.5829 60.74C80.3629 60.74 80.9929 60.5 81.4729 60.02C81.9529 59.528 82.1929 58.778 82.1929 57.77V53ZM93.5951 49.4H95.1611V62H93.5951V60.452C92.8151 61.64 91.6811 62.234 90.1931 62.234C88.9331 62.234 87.8591 61.778 86.9711 60.866C86.0831 59.942 85.6391 58.82 85.6391 57.5C85.6391 56.18 86.0831 55.064 86.9711 54.152C87.8591 53.228 88.9331 52.766 90.1931 52.766C91.6811 52.766 92.8151 53.36 93.5951 54.548V49.4ZM90.3911 60.722C91.3031 60.722 92.0651 60.416 92.6771 59.804C93.2891 59.18 93.5951 58.412 93.5951 57.5C93.5951 56.588 93.2891 55.826 92.6771 55.214C92.0651 54.59 91.3031 54.278 90.3911 54.278C89.4911 54.278 88.7351 54.59 88.1231 55.214C87.5111 55.826 87.2051 56.588 87.2051 57.5C87.2051 58.412 87.5111 59.18 88.1231 59.804C88.7351 60.416 89.4911 60.722 90.3911 60.722ZM98.6317 58.22C98.7877 59.024 99.1537 59.648 99.7297 60.092C100.318 60.536 101.038 60.758 101.89 60.758C103.078 60.758 103.942 60.32 104.482 59.444L105.814 60.2C104.938 61.556 103.618 62.234 101.854 62.234C100.426 62.234 99.2617 61.79 98.3617 60.902C97.4737 60.002 97.0297 58.868 97.0297 57.5C97.0297 56.144 97.4677 55.016 98.3437 54.116C99.2197 53.216 100.354 52.766 101.746 52.766C103.066 52.766 104.14 53.234 104.968 54.17C105.808 55.094 106.228 56.21 106.228 57.518C106.228 57.746 106.21 57.98 106.174 58.22H98.6317ZM101.746 54.242C100.906 54.242 100.21 54.482 99.6577 54.962C99.1057 55.43 98.7637 56.06 98.6317 56.852H104.644C104.512 56 104.176 55.352 103.636 54.908C103.096 54.464 102.466 54.242 101.746 54.242Z" fill="#DAACAC"/>
<path d="M119.764 51.686V53.378L114.112 55.7L119.764 58.004V59.696L112.33 56.456V54.926L119.764 51.686ZM230.736 51.686L238.17 54.926V56.456L230.736 59.696V58.004L236.388 55.7L230.736 53.378V51.686ZM189.534 90.43C189.534 90.778 189.708 91.06 190.056 91.276C190.404 91.48 190.824 91.648 191.316 91.78C191.808 91.9 192.3 92.044 192.792 92.212C193.284 92.368 193.704 92.644 194.052 93.04C194.4 93.424 194.574 93.922 194.574 94.534C194.574 95.35 194.256 96.004 193.62 96.496C192.996 96.988 192.192 97.234 191.208 97.234C190.332 97.234 189.582 97.042 188.958 96.658C188.334 96.274 187.89 95.764 187.626 95.128L188.976 94.354C189.12 94.786 189.39 95.128 189.786 95.38C190.182 95.632 190.656 95.758 191.208 95.758C191.724 95.758 192.15 95.662 192.486 95.47C192.822 95.266 192.99 94.954 192.99 94.534C192.99 94.186 192.816 93.91 192.468 93.706C192.12 93.49 191.7 93.322 191.208 93.202C190.716 93.07 190.224 92.92 189.732 92.752C189.24 92.584 188.82 92.308 188.472 91.924C188.124 91.54 187.95 91.048 187.95 90.448C187.95 89.668 188.25 89.026 188.85 88.522C189.462 88.018 190.224 87.766 191.136 87.766C191.868 87.766 192.516 87.934 193.08 88.27C193.656 88.594 194.088 89.05 194.376 89.638L193.062 90.376C192.738 89.608 192.096 89.224 191.136 89.224C190.692 89.224 190.314 89.332 190.002 89.548C189.69 89.752 189.534 90.046 189.534 90.43ZM200.973 89.512H198.579V94.39C198.579 94.834 198.663 95.152 198.831 95.344C199.011 95.524 199.281 95.62 199.641 95.632C200.001 95.632 200.445 95.62 200.973 95.596V97C199.605 97.18 198.603 97.072 197.967 96.676C197.331 96.268 197.013 95.506 197.013 94.39V89.512H195.231V88H197.013V85.948L198.579 85.48V88H200.973V89.512ZM209.822 84.4H211.388V97H209.822V95.452C209.042 96.64 207.908 97.234 206.42 97.234C205.16 97.234 204.086 96.778 203.198 95.866C202.31 94.942 201.866 93.82 201.866 92.5C201.866 91.18 202.31 90.064 203.198 89.152C204.086 88.228 205.16 87.766 206.42 87.766C207.908 87.766 209.042 88.36 209.822 89.548V84.4ZM206.618 95.722C207.53 95.722 208.292 95.416 208.904 94.804C209.516 94.18 209.822 93.412 209.822 92.5C209.822 91.588 209.516 90.826 208.904 90.214C208.292 89.59 207.53 89.278 206.618 89.278C205.718 89.278 204.962 89.59 204.35 90.214C203.738 90.826 203.432 91.588 203.432 92.5C203.432 93.412 203.738 94.18 204.35 94.804C204.962 95.416 205.718 95.722 206.618 95.722ZM215.002 90.124C214.678 90.124 214.402 90.01 214.174 89.782C213.946 89.554 213.832 89.278 213.832 88.954C213.832 88.63 213.946 88.354 214.174 88.126C214.402 87.898 214.678 87.784 215.002 87.784C215.338 87.784 215.614 87.898 215.83 88.126C216.058 88.354 216.172 88.63 216.172 88.954C216.172 89.278 216.058 89.554 215.83 89.782C215.614 90.01 215.338 90.124 215.002 90.124ZM216.1 95.146L214.93 99.52H213.58L214.3 95.146H216.1ZM38.538 159.43C38.538 159.778 38.712 160.06 39.06 160.276C39.408 160.48 39.828 160.648 40.32 160.78C40.812 160.9 41.304 161.044 41.796 161.212C42.288 161.368 42.708 161.644 43.056 162.04C43.404 162.424 43.578 162.922 43.578 163.534C43.578 164.35 43.26 165.004 42.624 165.496C42 165.988 41.196 166.234 40.212 166.234C39.336 166.234 38.586 166.042 37.962 165.658C37.338 165.274 36.894 164.764 36.63 164.128L37.98 163.354C38.124 163.786 38.394 164.128 38.79 164.38C39.186 164.632 39.66 164.758 40.212 164.758C40.728 164.758 41.154 164.662 41.49 164.47C41.826 164.266 41.994 163.954 41.994 163.534C41.994 163.186 41.82 162.91 41.472 162.706C41.124 162.49 40.704 162.322 40.212 162.202C39.72 162.07 39.228 161.92 38.736 161.752C38.244 161.584 37.824 161.308 37.476 160.924C37.128 160.54 36.954 160.048 36.954 159.448C36.954 158.668 37.254 158.026 37.854 157.522C38.466 157.018 39.228 156.766 40.14 156.766C40.872 156.766 41.52 156.934 42.084 157.27C42.66 157.594 43.092 158.05 43.38 158.638L42.066 159.376C41.742 158.608 41.1 158.224 40.14 158.224C39.696 158.224 39.318 158.332 39.006 158.548C38.694 158.752 38.538 159.046 38.538 159.43ZM49.9766 158.512H47.5826V163.39C47.5826 163.834 47.6666 164.152 47.8346 164.344C48.0146 164.524 48.2846 164.62 48.6446 164.632C49.0046 164.632 49.4486 164.62 49.9766 164.596V166C48.6086 166.18 47.6066 166.072 46.9706 165.676C46.3346 165.268 46.0166 164.506 46.0166 163.39V158.512H44.2346V157H46.0166V154.948L47.5826 154.48V157H49.9766V158.512ZM53.4493 158.512C53.9653 157.396 54.9013 156.838 56.2573 156.838V158.476C55.4893 158.44 54.8293 158.644 54.2773 159.088C53.7253 159.532 53.4493 160.246 53.4493 161.23V166H51.8833V157H53.4493V158.512ZM58.5816 155.362C58.2816 155.362 58.0296 155.26 57.8256 155.056C57.6216 154.852 57.5196 154.606 57.5196 154.318C57.5196 154.03 57.6216 153.784 57.8256 153.58C58.0296 153.364 58.2816 153.256 58.5816 153.256C58.8696 153.256 59.1156 153.364 59.3196 153.58C59.5236 153.784 59.6256 154.03 59.6256 154.318C59.6256 154.606 59.5236 154.852 59.3196 155.056C59.1156 155.26 58.8696 155.362 58.5816 155.362ZM57.7896 166V157H59.3556V166H57.7896ZM66.2266 156.766C67.2826 156.766 68.1286 157.102 68.7646 157.774C69.4006 158.434 69.7186 159.334 69.7186 160.474V166H68.1526V160.564C68.1526 159.832 67.9546 159.268 67.5586 158.872C67.1626 158.464 66.6166 158.26 65.9206 158.26C65.1406 158.26 64.5106 158.506 64.0306 158.998C63.5506 159.478 63.3106 160.222 63.3106 161.23V166H61.7446V157H63.3106V158.296C63.9466 157.276 64.9186 156.766 66.2266 156.766ZM79.3748 157H80.9228V165.622C80.9228 166.954 80.4728 167.986 79.5728 168.718C78.6728 169.462 77.5928 169.834 76.3328 169.834C75.3248 169.834 74.4548 169.642 73.7228 169.258C72.9908 168.886 72.4388 168.346 72.0668 167.638L73.4348 166.864C73.9268 167.872 74.9048 168.376 76.3688 168.376C77.3048 168.376 78.0368 168.13 78.5648 167.638C79.1048 167.146 79.3748 166.474 79.3748 165.622V164.344C78.5828 165.544 77.4548 166.144 75.9908 166.144C74.7068 166.144 73.6208 165.688 72.7328 164.776C71.8448 163.864 71.4008 162.754 71.4008 161.446C71.4008 160.138 71.8448 159.034 72.7328 158.134C73.6208 157.222 74.7068 156.766 75.9908 156.766C77.4668 156.766 78.5948 157.36 79.3748 158.548V157ZM73.8848 163.732C74.4968 164.344 75.2588 164.65 76.1708 164.65C77.0828 164.65 77.8448 164.344 78.4568 163.732C79.0688 163.12 79.3748 162.358 79.3748 161.446C79.3748 160.546 79.0688 159.79 78.4568 159.178C77.8448 158.566 77.0828 158.26 76.1708 158.26C75.2588 158.26 74.4968 158.566 73.8848 159.178C73.2728 159.79 72.9668 160.546 72.9668 161.446C72.9668 162.358 73.2728 163.12 73.8848 163.732ZM87.7954 166V152.86H89.3614V166H87.7954ZM96.6465 158.512H94.2525V163.39C94.2525 163.834 94.3365 164.152 94.5045 164.344C94.6845 164.524 94.9545 164.62 95.3145 164.632C95.6745 164.632 96.1185 164.62 96.6465 164.596V166C95.2785 166.18 94.2765 166.072 93.6405 165.676C93.0045 165.268 92.6865 164.506 92.6865 163.39V158.512H90.9045V157H92.6865V154.948L94.2525 154.48V157H96.6465V158.512ZM100.119 158.512C100.635 157.396 101.571 156.838 102.927 156.838V158.476C102.159 158.44 101.499 158.644 100.947 159.088C100.395 159.532 100.119 160.246 100.119 161.23V166H98.5532V157H100.119V158.512ZM105.251 155.362C104.951 155.362 104.699 155.26 104.495 155.056C104.291 154.852 104.189 154.606 104.189 154.318C104.189 154.03 104.291 153.784 104.495 153.58C104.699 153.364 104.951 153.256 105.251 153.256C105.539 153.256 105.785 153.364 105.989 153.58C106.193 153.784 106.295 154.03 106.295 154.318C106.295 154.606 106.193 154.852 105.989 155.056C105.785 155.26 105.539 155.362 105.251 155.362ZM104.459 166V157H106.025V166H104.459ZM118.135 156.766C119.143 156.766 119.959 157.096 120.583 157.756C121.207 158.404 121.519 159.286 121.519 160.402V166H119.953V160.456C119.953 159.76 119.773 159.22 119.413 158.836C119.053 158.452 118.573 158.26 117.973 158.26C117.301 158.26 116.761 158.488 116.353 158.944C115.957 159.388 115.759 160.072 115.759 160.996V166H114.193V160.456C114.193 159.76 114.019 159.22 113.671 158.836C113.335 158.452 112.873 158.26 112.285 158.26C111.625 158.26 111.073 158.488 110.629 158.944C110.197 159.4 109.981 160.084 109.981 160.996V166H108.415V157H109.981V158.206C110.593 157.246 111.487 156.766 112.663 156.766C113.875 156.766 114.757 157.276 115.309 158.296C115.933 157.276 116.875 156.766 118.135 156.766ZM125.526 167.8C124.206 165.16 123.546 162.46 123.546 159.7C123.546 156.94 124.206 154.24 125.526 151.6H127.092C125.772 154.24 125.112 156.94 125.112 159.7C125.112 162.46 125.772 165.16 127.092 167.8H125.526ZM179.972 159.43C179.972 159.778 180.146 160.06 180.494 160.276C180.842 160.48 181.262 160.648 181.754 160.78C182.246 160.9 182.738 161.044 183.23 161.212C183.722 161.368 184.142 161.644 184.49 162.04C184.838 162.424 185.012 162.922 185.012 163.534C185.012 164.35 184.694 165.004 184.058 165.496C183.434 165.988 182.63 166.234 181.646 166.234C180.77 166.234 180.02 166.042 179.396 165.658C178.772 165.274 178.328 164.764 178.064 164.128L179.414 163.354C179.558 163.786 179.828 164.128 180.224 164.38C180.62 164.632 181.094 164.758 181.646 164.758C182.162 164.758 182.588 164.662 182.924 164.47C183.26 164.266 183.428 163.954 183.428 163.534C183.428 163.186 183.254 162.91 182.906 162.706C182.558 162.49 182.138 162.322 181.646 162.202C181.154 162.07 180.662 161.92 180.17 161.752C179.678 161.584 179.258 161.308 178.91 160.924C178.562 160.54 178.388 160.048 178.388 159.448C178.388 158.668 178.688 158.026 179.288 157.522C179.9 157.018 180.662 156.766 181.574 156.766C182.306 156.766 182.954 156.934 183.518 157.27C184.094 157.594 184.526 158.05 184.814 158.638L183.5 159.376C183.176 158.608 182.534 158.224 181.574 158.224C181.13 158.224 180.752 158.332 180.44 158.548C180.128 158.752 179.972 159.046 179.972 159.43ZM191.41 158.512H189.016V163.39C189.016 163.834 189.1 164.152 189.268 164.344C189.448 164.524 189.718 164.62 190.078 164.632C190.438 164.632 190.882 164.62 191.41 164.596V166C190.042 166.18 189.04 166.072 188.404 165.676C187.768 165.268 187.45 164.506 187.45 163.39V158.512H185.668V157H187.45V154.948L189.016 154.48V157H191.41V158.512ZM194.883 158.512C195.399 157.396 196.335 156.838 197.691 156.838V158.476C196.923 158.44 196.263 158.644 195.711 159.088C195.159 159.532 194.883 160.246 194.883 161.23V166H193.317V157H194.883V158.512ZM200.015 155.362C199.715 155.362 199.463 155.26 199.259 155.056C199.055 154.852 198.953 154.606 198.953 154.318C198.953 154.03 199.055 153.784 199.259 153.58C199.463 153.364 199.715 153.256 200.015 153.256C200.303 153.256 200.549 153.364 200.753 153.58C200.957 153.784 201.059 154.03 201.059 154.318C201.059 154.606 200.957 154.852 200.753 155.056C200.549 155.26 200.303 155.362 200.015 155.362ZM199.223 166V157H200.789V166H199.223ZM207.66 156.766C208.716 156.766 209.562 157.102 210.198 157.774C210.834 158.434 211.152 159.334 211.152 160.474V166H209.586V160.564C209.586 159.832 209.388 159.268 208.992 158.872C208.596 158.464 208.05 158.26 207.354 158.26C206.574 158.26 205.944 158.506 205.464 158.998C204.984 159.478 204.744 160.222 204.744 161.23V166H203.178V157H204.744V158.296C205.38 157.276 206.352 156.766 207.66 156.766ZM220.808 157H222.356V165.622C222.356 166.954 221.906 167.986 221.006 168.718C220.106 169.462 219.026 169.834 217.766 169.834C216.758 169.834 215.888 169.642 215.156 169.258C214.424 168.886 213.872 168.346 213.5 167.638L214.868 166.864C215.36 167.872 216.338 168.376 217.802 168.376C218.738 168.376 219.47 168.13 219.998 167.638C220.538 167.146 220.808 166.474 220.808 165.622V164.344C220.016 165.544 218.888 166.144 217.424 166.144C216.14 166.144 215.054 165.688 214.166 164.776C213.278 163.864 212.834 162.754 212.834 161.446C212.834 160.138 213.278 159.034 214.166 158.134C215.054 157.222 216.14 156.766 217.424 156.766C218.9 156.766 220.028 157.36 220.808 158.548V157ZM215.318 163.732C215.93 164.344 216.692 164.65 217.604 164.65C218.516 164.65 219.278 164.344 219.89 163.732C220.502 163.12 220.808 162.358 220.808 161.446C220.808 160.546 220.502 159.79 219.89 159.178C219.278 158.566 218.516 158.26 217.604 158.26C216.692 158.26 215.93 158.566 215.318 159.178C214.706 159.79 214.4 160.546 214.4 161.446C214.4 162.358 214.706 163.12 215.318 163.732ZM239.543 165.478L238.139 166.288L236.861 164.92C235.925 165.796 234.725 166.234 233.261 166.234C232.001 166.234 230.981 165.91 230.201 165.262C229.421 164.602 229.031 163.714 229.031 162.598C229.031 161.83 229.223 161.128 229.607 160.492C230.003 159.844 230.579 159.334 231.335 158.962C230.795 158.278 230.525 157.516 230.525 156.676C230.525 155.632 230.885 154.786 231.605 154.138C232.337 153.49 233.213 153.166 234.233 153.166C235.073 153.166 235.835 153.394 236.519 153.85C237.203 154.306 237.695 154.936 237.995 155.74L236.591 156.55C236.411 155.998 236.111 155.566 235.691 155.254C235.283 154.942 234.809 154.786 234.269 154.786C233.693 154.786 233.201 154.96 232.793 155.308C232.397 155.656 232.199 156.106 232.199 156.658C232.199 157.054 232.289 157.414 232.469 157.738C232.661 158.05 232.943 158.404 233.315 158.8L236.753 162.472C237.053 161.848 237.269 161.086 237.401 160.186L238.841 161.014C238.673 162.01 238.349 162.904 237.869 163.696L239.543 165.478ZM233.297 164.65C234.293 164.65 235.121 164.356 235.781 163.768L232.379 160.114C231.803 160.354 231.377 160.69 231.101 161.122C230.837 161.554 230.705 162.01 230.705 162.49C230.705 163.162 230.933 163.69 231.389 164.074C231.845 164.458 232.481 164.65 233.297 164.65ZM241.975 167.8H240.409C241.729 165.16 242.389 162.46 242.389 159.7C242.389 156.94 241.729 154.24 240.409 151.6H241.975C243.295 154.24 243.955 156.94 243.955 159.7C243.955 162.46 243.295 165.16 241.975 167.8ZM247.434 159.124C247.11 159.124 246.834 159.01 246.606 158.782C246.378 158.554 246.264 158.278 246.264 157.954C246.264 157.63 246.378 157.354 246.606 157.126C246.834 156.898 247.11 156.784 247.434 156.784C247.77 156.784 248.046 156.898 248.262 157.126C248.49 157.354 248.604 157.63 248.604 157.954C248.604 158.278 248.49 158.554 248.262 158.782C248.046 159.01 247.77 159.124 247.434 159.124ZM248.532 164.146L247.362 168.52H246.012L246.732 164.146H248.532ZM38.538 193.43C38.538 193.778 38.712 194.06 39.06 194.276C39.408 194.48 39.828 194.648 40.32 194.78C40.812 194.9 41.304 195.044 41.796 195.212C42.288 195.368 42.708 195.644 43.056 196.04C43.404 196.424 43.578 196.922 43.578 197.534C43.578 198.35 43.26 199.004 42.624 199.496C42 199.988 41.196 200.234 40.212 200.234C39.336 200.234 38.586 200.042 37.962 199.658C37.338 199.274 36.894 198.764 36.63 198.128L37.98 197.354C38.124 197.786 38.394 198.128 38.79 198.38C39.186 198.632 39.66 198.758 40.212 198.758C40.728 198.758 41.154 198.662 41.49 198.47C41.826 198.266 41.994 197.954 41.994 197.534C41.994 197.186 41.82 196.91 41.472 196.706C41.124 196.49 40.704 196.322 40.212 196.202C39.72 196.07 39.228 195.92 38.736 195.752C38.244 195.584 37.824 195.308 37.476 194.924C37.128 194.54 36.954 194.048 36.954 193.448C36.954 192.668 37.254 192.026 37.854 191.522C38.466 191.018 39.228 190.766 40.14 190.766C40.872 190.766 41.52 190.934 42.084 191.27C42.66 191.594 43.092 192.05 43.38 192.638L42.066 193.376C41.742 192.608 41.1 192.224 40.14 192.224C39.696 192.224 39.318 192.332 39.006 192.548C38.694 192.752 38.538 193.046 38.538 193.43ZM49.9766 192.512H47.5826V197.39C47.5826 197.834 47.6666 198.152 47.8346 198.344C48.0146 198.524 48.2846 198.62 48.6446 198.632C49.0046 198.632 49.4486 198.62 49.9766 198.596V200C48.6086 200.18 47.6066 200.072 46.9706 199.676C46.3346 199.268 46.0166 198.506 46.0166 197.39V192.512H44.2346V191H46.0166V188.948L47.5826 188.48V191H49.9766V192.512ZM53.4493 192.512C53.9653 191.396 54.9013 190.838 56.2573 190.838V192.476C55.4893 192.44 54.8293 192.644 54.2773 193.088C53.7253 193.532 53.4493 194.246 53.4493 195.23V200H51.8833V191H53.4493V192.512ZM58.5816 189.362C58.2816 189.362 58.0296 189.26 57.8256 189.056C57.6216 188.852 57.5196 188.606 57.5196 188.318C57.5196 188.03 57.6216 187.784 57.8256 187.58C58.0296 187.364 58.2816 187.256 58.5816 187.256C58.8696 187.256 59.1156 187.364 59.3196 187.58C59.5236 187.784 59.6256 188.03 59.6256 188.318C59.6256 188.606 59.5236 188.852 59.3196 189.056C59.1156 189.26 58.8696 189.362 58.5816 189.362ZM57.7896 200V191H59.3556V200H57.7896ZM66.2266 190.766C67.2826 190.766 68.1286 191.102 68.7646 191.774C69.4006 192.434 69.7186 193.334 69.7186 194.474V200H68.1526V194.564C68.1526 193.832 67.9546 193.268 67.5586 192.872C67.1626 192.464 66.6166 192.26 65.9206 192.26C65.1406 192.26 64.5106 192.506 64.0306 192.998C63.5506 193.478 63.3106 194.222 63.3106 195.23V200H61.7446V191H63.3106V192.296C63.9466 191.276 64.9186 190.766 66.2266 190.766ZM79.3748 191H80.9228V199.622C80.9228 200.954 80.4728 201.986 79.5728 202.718C78.6728 203.462 77.5928 203.834 76.3328 203.834C75.3248 203.834 74.4548 203.642 73.7228 203.258C72.9908 202.886 72.4388 202.346 72.0668 201.638L73.4348 200.864C73.9268 201.872 74.9048 202.376 76.3688 202.376C77.3048 202.376 78.0368 202.13 78.5648 201.638C79.1048 201.146 79.3748 200.474 79.3748 199.622V198.344C78.5828 199.544 77.4548 200.144 75.9908 200.144C74.7068 200.144 73.6208 199.688 72.7328 198.776C71.8448 197.864 71.4008 196.754 71.4008 195.446C71.4008 194.138 71.8448 193.034 72.7328 192.134C73.6208 191.222 74.7068 190.766 75.9908 190.766C77.4668 190.766 78.5948 191.36 79.3748 192.548V191ZM73.8848 197.732C74.4968 198.344 75.2588 198.65 76.1708 198.65C77.0828 198.65 77.8448 198.344 78.4568 197.732C79.0688 197.12 79.3748 196.358 79.3748 195.446C79.3748 194.546 79.0688 193.79 78.4568 193.178C77.8448 192.566 77.0828 192.26 76.1708 192.26C75.2588 192.26 74.4968 192.566 73.8848 193.178C73.2728 193.79 72.9668 194.546 72.9668 195.446C72.9668 196.358 73.2728 197.12 73.8848 197.732ZM89.3614 192.512C89.8774 191.396 90.8134 190.838 92.1694 190.838V192.476C91.4014 192.44 90.7414 192.644 90.1894 193.088C89.6374 193.532 89.3614 194.246 89.3614 195.23V200H87.7954V191H89.3614V192.512ZM98.8086 192.512H96.4146V197.39C96.4146 197.834 96.4986 198.152 96.6666 198.344C96.8466 198.524 97.1166 198.62 97.4766 198.632C97.8366 198.632 98.2806 198.62 98.8086 198.596V200C97.4406 200.18 96.4386 200.072 95.8026 199.676C95.1666 199.268 94.8486 198.506 94.8486 197.39V192.512H93.0666V191H94.8486V188.948L96.4146 188.48V191H98.8086V192.512ZM102.281 192.512C102.797 191.396 103.733 190.838 105.089 190.838V192.476C104.321 192.44 103.661 192.644 103.109 193.088C102.557 193.532 102.281 194.246 102.281 195.23V200H100.715V191H102.281V192.512ZM107.414 189.362C107.114 189.362 106.862 189.26 106.658 189.056C106.454 188.852 106.352 188.606 106.352 188.318C106.352 188.03 106.454 187.784 106.658 187.58C106.862 187.364 107.114 187.256 107.414 187.256C107.702 187.256 107.948 187.364 108.152 187.58C108.356 187.784 108.458 188.03 108.458 188.318C108.458 188.606 108.356 188.852 108.152 189.056C107.948 189.26 107.702 189.362 107.414 189.362ZM106.622 200V191H108.188V200H106.622ZM120.297 190.766C121.305 190.766 122.121 191.096 122.745 191.756C123.369 192.404 123.681 193.286 123.681 194.402V200H122.115V194.456C122.115 193.76 121.935 193.22 121.575 192.836C121.215 192.452 120.735 192.26 120.135 192.26C119.463 192.26 118.923 192.488 118.515 192.944C118.119 193.388 117.921 194.072 117.921 194.996V200H116.355V194.456C116.355 193.76 116.181 193.22 115.833 192.836C115.497 192.452 115.035 192.26 114.447 192.26C113.787 192.26 113.235 192.488 112.791 192.944C112.359 193.4 112.143 194.084 112.143 194.996V200H110.577V191H112.143V192.206C112.755 191.246 113.649 190.766 114.825 190.766C116.037 190.766 116.919 191.276 117.471 192.296C118.095 191.276 119.037 190.766 120.297 190.766ZM127.688 201.8C126.368 199.16 125.708 196.46 125.708 193.7C125.708 190.94 126.368 188.24 127.688 185.6H129.254C127.934 188.24 127.274 190.94 127.274 193.7C127.274 196.46 127.934 199.16 129.254 201.8H127.688ZM182.134 193.43C182.134 193.778 182.308 194.06 182.656 194.276C183.004 194.48 183.424 194.648 183.916 194.78C184.408 194.9 184.9 195.044 185.392 195.212C185.884 195.368 186.304 195.644 186.652 196.04C187 196.424 187.174 196.922 187.174 197.534C187.174 198.35 186.856 199.004 186.22 199.496C185.596 199.988 184.792 200.234 183.808 200.234C182.932 200.234 182.182 200.042 181.558 199.658C180.934 199.274 180.49 198.764 180.226 198.128L181.576 197.354C181.72 197.786 181.99 198.128 182.386 198.38C182.782 198.632 183.256 198.758 183.808 198.758C184.324 198.758 184.75 198.662 185.086 198.47C185.422 198.266 185.59 197.954 185.59 197.534C185.59 197.186 185.416 196.91 185.068 196.706C184.72 196.49 184.3 196.322 183.808 196.202C183.316 196.07 182.824 195.92 182.332 195.752C181.84 195.584 181.42 195.308 181.072 194.924C180.724 194.54 180.55 194.048 180.55 193.448C180.55 192.668 180.85 192.026 181.45 191.522C182.062 191.018 182.824 190.766 183.736 190.766C184.468 190.766 185.116 190.934 185.68 191.27C186.256 191.594 186.688 192.05 186.976 192.638L185.662 193.376C185.338 192.608 184.696 192.224 183.736 192.224C183.292 192.224 182.914 192.332 182.602 192.548C182.29 192.752 182.134 193.046 182.134 193.43ZM193.572 192.512H191.178V197.39C191.178 197.834 191.262 198.152 191.43 198.344C191.61 198.524 191.88 198.62 192.24 198.632C192.6 198.632 193.044 198.62 193.572 198.596V200C192.204 200.18 191.202 200.072 190.566 199.676C189.93 199.268 189.612 198.506 189.612 197.39V192.512H187.83V191H189.612V188.948L191.178 188.48V191H193.572V192.512ZM197.045 192.512C197.561 191.396 198.497 190.838 199.853 190.838V192.476C199.085 192.44 198.425 192.644 197.873 193.088C197.321 193.532 197.045 194.246 197.045 195.23V200H195.479V191H197.045V192.512ZM202.177 189.362C201.877 189.362 201.625 189.26 201.421 189.056C201.217 188.852 201.115 188.606 201.115 188.318C201.115 188.03 201.217 187.784 201.421 187.58C201.625 187.364 201.877 187.256 202.177 187.256C202.465 187.256 202.711 187.364 202.915 187.58C203.119 187.784 203.221 188.03 203.221 188.318C203.221 188.606 203.119 188.852 202.915 189.056C202.711 189.26 202.465 189.362 202.177 189.362ZM201.385 200V191H202.951V200H201.385ZM209.822 190.766C210.878 190.766 211.724 191.102 212.36 191.774C212.996 192.434 213.314 193.334 213.314 194.474V200H211.748V194.564C211.748 193.832 211.55 193.268 211.154 192.872C210.758 192.464 210.212 192.26 209.516 192.26C208.736 192.26 208.106 192.506 207.626 192.998C207.146 193.478 206.906 194.222 206.906 195.23V200H205.34V191H206.906V192.296C207.542 191.276 208.514 190.766 209.822 190.766ZM222.971 191H224.519V199.622C224.519 200.954 224.069 201.986 223.169 202.718C222.269 203.462 221.189 203.834 219.929 203.834C218.921 203.834 218.051 203.642 217.319 203.258C216.587 202.886 216.035 202.346 215.663 201.638L217.031 200.864C217.523 201.872 218.501 202.376 219.965 202.376C220.901 202.376 221.633 202.13 222.161 201.638C222.701 201.146 222.971 200.474 222.971 199.622V198.344C222.179 199.544 221.051 200.144 219.587 200.144C218.303 200.144 217.217 199.688 216.329 198.776C215.441 197.864 214.997 196.754 214.997 195.446C214.997 194.138 215.441 193.034 216.329 192.134C217.217 191.222 218.303 190.766 219.587 190.766C221.063 190.766 222.191 191.36 222.971 192.548V191ZM217.481 197.732C218.093 198.344 218.855 198.65 219.767 198.65C220.679 198.65 221.441 198.344 222.053 197.732C222.665 197.12 222.971 196.358 222.971 195.446C222.971 194.546 222.665 193.79 222.053 193.178C221.441 192.566 220.679 192.26 219.767 192.26C218.855 192.26 218.093 192.566 217.481 193.178C216.869 193.79 216.562 194.546 216.562 195.446C216.562 196.358 216.869 197.12 217.481 197.732ZM241.705 199.478L240.301 200.288L239.023 198.92C238.087 199.796 236.887 200.234 235.423 200.234C234.163 200.234 233.143 199.91 232.363 199.262C231.583 198.602 231.193 197.714 231.193 196.598C231.193 195.83 231.385 195.128 231.769 194.492C232.165 193.844 232.741 193.334 233.497 192.962C232.957 192.278 232.687 191.516 232.687 190.676C232.687 189.632 233.047 188.786 233.767 188.138C234.499 187.49 235.375 187.166 236.395 187.166C237.235 187.166 237.997 187.394 238.681 187.85C239.365 188.306 239.857 188.936 240.157 189.74L238.753 190.55C238.573 189.998 238.273 189.566 237.853 189.254C237.445 188.942 236.971 188.786 236.431 188.786C235.855 188.786 235.363 188.96 234.955 189.308C234.559 189.656 234.361 190.106 234.361 190.658C234.361 191.054 234.451 191.414 234.631 191.738C234.823 192.05 235.105 192.404 235.477 192.8L238.915 196.472C239.215 195.848 239.431 195.086 239.563 194.186L241.003 195.014C240.835 196.01 240.511 196.904 240.031 197.696L241.705 199.478ZM235.459 198.65C236.455 198.65 237.283 198.356 237.943 197.768L234.541 194.114C233.965 194.354 233.539 194.69 233.263 195.122C232.999 195.554 232.867 196.01 232.867 196.49C232.867 197.162 233.095 197.69 233.551 198.074C234.007 198.458 234.643 198.65 235.459 198.65ZM244.137 201.8H242.571C243.891 199.16 244.551 196.46 244.551 193.7C244.551 190.94 243.891 188.24 242.571 185.6H244.137C245.457 188.24 246.117 190.94 246.117 193.7C246.117 196.46 245.457 199.16 244.137 201.8ZM249.596 193.124C249.272 193.124 248.996 193.01 248.768 192.782C248.54 192.554 248.426 192.278 248.426 191.954C248.426 191.63 248.54 191.354 248.768 191.126C248.996 190.898 249.272 190.784 249.596 190.784C249.932 190.784 250.208 190.898 250.424 191.126C250.652 191.354 250.766 191.63 250.766 191.954C250.766 192.278 250.652 192.554 250.424 192.782C250.208 193.01 249.932 193.124 249.596 193.124ZM250.694 198.146L249.524 202.52H248.174L248.894 198.146H250.694ZM43.488 226H45.18L41.58 235H39.744L36.144 226H37.836L40.662 233.326L43.488 226ZM47.2508 231.22C47.4068 232.024 47.7728 232.648 48.3488 233.092C48.9368 233.536 49.6568 233.758 50.5088 233.758C51.6968 233.758 52.5608 233.32 53.1008 232.444L54.4328 233.2C53.5568 234.556 52.2368 235.234 50.4728 235.234C49.0448 235.234 47.8808 234.79 46.9808 233.902C46.0928 233.002 45.6488 231.868 45.6488 230.5C45.6488 229.144 46.0868 228.016 46.9628 227.116C47.8388 226.216 48.9728 225.766 50.3648 225.766C51.6848 225.766 52.7588 226.234 53.5868 227.17C54.4268 228.094 54.8468 229.21 54.8468 230.518C54.8468 230.746 54.8288 230.98 54.7928 231.22H47.2508ZM50.3648 227.242C49.5248 227.242 48.8288 227.482 48.2768 227.962C47.7248 228.43 47.3828 229.06 47.2508 229.852H53.2628C53.1308 229 52.7948 228.352 52.2548 227.908C51.7148 227.464 51.0848 227.242 50.3648 227.242ZM60.8594 235.234C59.5034 235.234 58.3754 234.784 57.4754 233.884C56.5754 232.972 56.1254 231.844 56.1254 230.5C56.1254 229.156 56.5754 228.034 57.4754 227.134C58.3754 226.222 59.5034 225.766 60.8594 225.766C61.7474 225.766 62.5454 225.982 63.2534 226.414C63.9614 226.834 64.4894 227.404 64.8374 228.124L63.5234 228.88C63.2954 228.4 62.9414 228.016 62.4614 227.728C61.9934 227.44 61.4594 227.296 60.8594 227.296C59.9594 227.296 59.2034 227.602 58.5914 228.214C57.9914 228.826 57.6914 229.588 57.6914 230.5C57.6914 231.4 57.9914 232.156 58.5914 232.768C59.2034 233.38 59.9594 233.686 60.8594 233.686C61.4594 233.686 61.9994 233.548 62.4794 233.272C62.9594 232.984 63.3254 232.6 63.5774 232.12L64.9094 232.894C64.5254 233.602 63.9734 234.172 63.2534 234.604C62.5334 235.024 61.7354 235.234 60.8594 235.234ZM71.3516 227.512H68.9576V232.39C68.9576 232.834 69.0416 233.152 69.2096 233.344C69.3896 233.524 69.6596 233.62 70.0196 233.632C70.3796 233.632 70.8236 233.62 71.3516 233.596V235C69.9836 235.18 68.9816 235.072 68.3456 234.676C67.7096 234.268 67.3916 233.506 67.3916 232.39V227.512H65.6096V226H67.3916V223.948L68.9576 223.48V226H71.3516V227.512ZM80.3445 233.866C79.4205 234.778 78.2985 235.234 76.9785 235.234C75.6585 235.234 74.5365 234.778 73.6125 233.866C72.7005 232.954 72.2445 231.832 72.2445 230.5C72.2445 229.168 72.7005 228.046 73.6125 227.134C74.5365 226.222 75.6585 225.766 76.9785 225.766C78.2985 225.766 79.4205 226.222 80.3445 227.134C81.2685 228.046 81.7305 229.168 81.7305 230.5C81.7305 231.832 81.2685 232.954 80.3445 233.866ZM76.9785 233.704C77.8785 233.704 78.6345 233.398 79.2465 232.786C79.8585 232.174 80.1645 231.412 80.1645 230.5C80.1645 229.588 79.8585 228.826 79.2465 228.214C78.6345 227.602 77.8785 227.296 76.9785 227.296C76.0905 227.296 75.3405 227.602 74.7285 228.214C74.1165 228.826 73.8105 229.588 73.8105 230.5C73.8105 231.412 74.1165 232.174 74.7285 232.786C75.3405 233.398 76.0905 233.704 76.9785 233.704ZM85.1427 227.512C85.6587 226.396 86.5947 225.838 87.9507 225.838V227.476C87.1827 227.44 86.5227 227.644 85.9707 228.088C85.4187 228.532 85.1427 229.246 85.1427 230.23V235H83.5767V226H85.1427V227.512ZM96.7189 224.686V226.378L91.0669 228.7L96.7189 231.004V232.696L89.2849 229.456V227.926L96.7189 224.686ZM100.255 228.43C100.255 228.778 100.429 229.06 100.777 229.276C101.125 229.48 101.545 229.648 102.037 229.78C102.529 229.9 103.021 230.044 103.513 230.212C104.005 230.368 104.425 230.644 104.773 231.04C105.121 231.424 105.295 231.922 105.295 232.534C105.295 233.35 104.977 234.004 104.341 234.496C103.717 234.988 102.913 235.234 101.929 235.234C101.053 235.234 100.303 235.042 99.6788 234.658C99.0548 234.274 98.6108 233.764 98.3468 233.128L99.6968 232.354C99.8408 232.786 100.111 233.128 100.507 233.38C100.903 233.632 101.377 233.758 101.929 233.758C102.445 233.758 102.871 233.662 103.207 233.47C103.543 233.266 103.711 232.954 103.711 232.534C103.711 232.186 103.537 231.91 103.189 231.706C102.841 231.49 102.421 231.322 101.929 231.202C101.437 231.07 100.945 230.92 100.453 230.752C99.9608 230.584 99.5408 230.308 99.1928 229.924C98.8448 229.54 98.6708 229.048 98.6708 228.448C98.6708 227.668 98.9708 227.026 99.5708 226.522C100.183 226.018 100.945 225.766 101.857 225.766C102.589 225.766 103.237 225.934 103.801 226.27C104.377 226.594 104.809 227.05 105.097 227.638L103.783 228.376C103.459 227.608 102.817 227.224 101.857 227.224C101.413 227.224 101.035 227.332 100.723 227.548C100.411 227.752 100.255 228.046 100.255 228.43ZM111.693 227.512H109.299V232.39C109.299 232.834 109.383 233.152 109.551 233.344C109.731 233.524 110.001 233.62 110.361 233.632C110.721 233.632 111.165 233.62 111.693 233.596V235C110.325 235.18 109.323 235.072 108.687 234.676C108.051 234.268 107.733 233.506 107.733 232.39V227.512H105.951V226H107.733V223.948L109.299 223.48V226H111.693V227.512ZM115.166 227.512C115.682 226.396 116.618 225.838 117.974 225.838V227.476C117.206 227.44 116.546 227.644 115.994 228.088C115.442 228.532 115.166 229.246 115.166 230.23V235H113.6V226H115.166V227.512ZM120.298 224.362C119.998 224.362 119.746 224.26 119.542 224.056C119.338 223.852 119.236 223.606 119.236 223.318C119.236 223.03 119.338 222.784 119.542 222.58C119.746 222.364 119.998 222.256 120.298 222.256C120.586 222.256 120.832 222.364 121.036 222.58C121.24 222.784 121.342 223.03 121.342 223.318C121.342 223.606 121.24 223.852 121.036 224.056C120.832 224.26 120.586 224.362 120.298 224.362ZM119.506 235V226H121.072V235H119.506ZM127.943 225.766C128.999 225.766 129.845 226.102 130.481 226.774C131.117 227.434 131.435 228.334 131.435 229.474V235H129.869V229.564C129.869 228.832 129.671 228.268 129.275 227.872C128.879 227.464 128.333 227.26 127.637 227.26C126.857 227.26 126.227 227.506 125.747 227.998C125.267 228.478 125.027 229.222 125.027 230.23V235H123.461V226H125.027V227.296C125.663 226.276 126.635 225.766 127.943 225.766ZM141.092 226H142.64V234.622C142.64 235.954 142.19 236.986 141.29 237.718C140.39 238.462 139.31 238.834 138.05 238.834C137.042 238.834 136.172 238.642 135.44 238.258C134.708 237.886 134.156 237.346 133.784 236.638L135.152 235.864C135.644 236.872 136.622 237.376 138.086 237.376C139.022 237.376 139.754 237.13 140.282 236.638C140.822 236.146 141.092 235.474 141.092 234.622V233.344C140.3 234.544 139.172 235.144 137.708 235.144C136.424 235.144 135.338 234.688 134.45 233.776C133.562 232.864 133.118 231.754 133.118 230.446C133.118 229.138 133.562 228.034 134.45 227.134C135.338 226.222 136.424 225.766 137.708 225.766C139.184 225.766 140.312 226.36 141.092 227.548V226ZM135.602 232.732C136.214 233.344 136.976 233.65 137.888 233.65C138.8 233.65 139.562 233.344 140.174 232.732C140.786 232.12 141.092 231.358 141.092 230.446C141.092 229.546 140.786 228.79 140.174 228.178C139.562 227.566 138.8 227.26 137.888 227.26C136.976 227.26 136.214 227.566 135.602 228.178C134.99 228.79 134.684 229.546 134.684 230.446C134.684 231.358 134.99 232.12 135.602 232.732ZM144.814 224.686L152.248 227.926V229.456L144.814 232.696V231.004L150.466 228.7L144.814 226.378V224.686ZM160.284 228.43C160.284 228.778 160.458 229.06 160.806 229.276C161.154 229.48 161.574 229.648 162.066 229.78C162.558 229.9 163.05 230.044 163.542 230.212C164.034 230.368 164.454 230.644 164.802 231.04C165.15 231.424 165.324 231.922 165.324 232.534C165.324 233.35 165.006 234.004 164.37 234.496C163.746 234.988 162.942 235.234 161.958 235.234C161.082 235.234 160.332 235.042 159.708 234.658C159.084 234.274 158.64 233.764 158.376 233.128L159.726 232.354C159.87 232.786 160.14 233.128 160.536 233.38C160.932 233.632 161.406 233.758 161.958 233.758C162.474 233.758 162.9 233.662 163.236 233.47C163.572 233.266 163.74 232.954 163.74 232.534C163.74 232.186 163.566 231.91 163.218 231.706C162.87 231.49 162.45 231.322 161.958 231.202C161.466 231.07 160.974 230.92 160.482 230.752C159.99 230.584 159.57 230.308 159.222 229.924C158.874 229.54 158.7 229.048 158.7 228.448C158.7 227.668 159 227.026 159.6 226.522C160.212 226.018 160.974 225.766 161.886 225.766C162.618 225.766 163.266 225.934 163.83 226.27C164.406 226.594 164.838 227.05 165.126 227.638L163.812 228.376C163.488 227.608 162.846 227.224 161.886 227.224C161.442 227.224 161.064 227.332 160.752 227.548C160.44 227.752 160.284 228.046 160.284 228.43ZM172.146 225.766C173.406 225.766 174.48 226.228 175.368 227.152C176.256 228.064 176.7 229.18 176.7 230.5C176.7 231.82 176.256 232.942 175.368 233.866C174.48 234.778 173.406 235.234 172.146 235.234C170.658 235.234 169.524 234.64 168.744 233.452V238.6H167.178V226H168.744V227.548C169.524 226.36 170.658 225.766 172.146 225.766ZM171.948 233.722C172.848 233.722 173.604 233.416 174.216 232.804C174.828 232.18 175.134 231.412 175.134 230.5C175.134 229.588 174.828 228.826 174.216 228.214C173.604 227.59 172.848 227.278 171.948 227.278C171.036 227.278 170.274 227.59 169.662 228.214C169.05 228.826 168.744 229.588 168.744 230.5C168.744 231.412 169.05 232.18 169.662 232.804C170.274 233.416 171.036 233.722 171.948 233.722ZM178.569 235V221.86H180.135V235H178.569ZM183.316 224.362C183.016 224.362 182.764 224.26 182.56 224.056C182.356 223.852 182.254 223.606 182.254 223.318C182.254 223.03 182.356 222.784 182.56 222.58C182.764 222.364 183.016 222.256 183.316 222.256C183.604 222.256 183.85 222.364 184.054 222.58C184.258 222.784 184.36 223.03 184.36 223.318C184.36 223.606 184.258 223.852 184.054 224.056C183.85 224.26 183.604 224.362 183.316 224.362ZM182.524 235V226H184.09V235H182.524ZM191.375 227.512H188.981V232.39C188.981 232.834 189.065 233.152 189.233 233.344C189.413 233.524 189.683 233.62 190.043 233.632C190.403 233.632 190.847 233.62 191.375 233.596V235C190.007 235.18 189.005 235.072 188.369 234.676C187.733 234.268 187.415 233.506 187.415 232.39V227.512H185.633V226H187.415V223.948L188.981 223.48V226H191.375V227.512ZM195.118 236.8C193.798 234.16 193.138 231.46 193.138 228.7C193.138 225.94 193.798 223.24 195.118 220.6H196.684C195.364 223.24 194.704 225.94 194.704 228.7C194.704 231.46 195.364 234.16 196.684 236.8H195.118ZM249.563 228.43C249.563 228.778 249.737 229.06 250.085 229.276C250.433 229.48 250.853 229.648 251.345 229.78C251.837 229.9 252.329 230.044 252.821 230.212C253.313 230.368 253.733 230.644 254.081 231.04C254.429 231.424 254.603 231.922 254.603 232.534C254.603 233.35 254.285 234.004 253.649 234.496C253.025 234.988 252.221 235.234 251.237 235.234C250.361 235.234 249.611 235.042 248.987 234.658C248.363 234.274 247.919 233.764 247.655 233.128L249.005 232.354C249.149 232.786 249.419 233.128 249.815 233.38C250.211 233.632 250.685 233.758 251.237 233.758C251.753 233.758 252.179 233.662 252.515 233.47C252.851 233.266 253.019 232.954 253.019 232.534C253.019 232.186 252.845 231.91 252.497 231.706C252.149 231.49 251.729 231.322 251.237 231.202C250.745 231.07 250.253 230.92 249.761 230.752C249.269 230.584 248.849 230.308 248.501 229.924C248.153 229.54 247.979 229.048 247.979 228.448C247.979 227.668 248.279 227.026 248.879 226.522C249.491 226.018 250.253 225.766 251.165 225.766C251.897 225.766 252.545 225.934 253.109 226.27C253.685 226.594 254.117 227.05 254.405 227.638L253.091 228.376C252.767 227.608 252.125 227.224 251.165 227.224C250.721 227.224 250.343 227.332 250.031 227.548C249.719 227.752 249.563 228.046 249.563 228.43ZM261.002 227.512H258.608V232.39C258.608 232.834 258.692 233.152 258.86 233.344C259.04 233.524 259.31 233.62 259.67 233.632C260.03 233.632 260.474 233.62 261.002 233.596V235C259.634 235.18 258.632 235.072 257.996 234.676C257.36 234.268 257.042 233.506 257.042 232.39V227.512H255.26V226H257.042V223.948L258.608 223.48V226H261.002V227.512ZM264.475 227.512C264.991 226.396 265.927 225.838 267.283 225.838V227.476C266.515 227.44 265.855 227.644 265.303 228.088C264.751 228.532 264.475 229.246 264.475 230.23V235H262.909V226H264.475V227.512ZM269.607 224.362C269.307 224.362 269.055 224.26 268.851 224.056C268.647 223.852 268.545 223.606 268.545 223.318C268.545 223.03 268.647 222.784 268.851 222.58C269.055 222.364 269.307 222.256 269.607 222.256C269.895 222.256 270.141 222.364 270.345 222.58C270.549 222.784 270.651 223.03 270.651 223.318C270.651 223.606 270.549 223.852 270.345 224.056C270.141 224.26 269.895 224.362 269.607 224.362ZM268.815 235V226H270.381V235H268.815ZM277.252 225.766C278.308 225.766 279.154 226.102 279.79 226.774C280.426 227.434 280.744 228.334 280.744 229.474V235H279.178V229.564C279.178 228.832 278.98 228.268 278.584 227.872C278.188 227.464 277.642 227.26 276.946 227.26C276.166 227.26 275.536 227.506 275.056 227.998C274.576 228.478 274.336 229.222 274.336 230.23V235H272.77V226H274.336V227.296C274.972 226.276 275.944 225.766 277.252 225.766ZM290.4 226H291.948V234.622C291.948 235.954 291.498 236.986 290.598 237.718C289.698 238.462 288.618 238.834 287.358 238.834C286.35 238.834 285.48 238.642 284.748 238.258C284.016 237.886 283.464 237.346 283.092 236.638L284.46 235.864C284.952 236.872 285.93 237.376 287.394 237.376C288.33 237.376 289.062 237.13 289.59 236.638C290.13 236.146 290.4 235.474 290.4 234.622V233.344C289.608 234.544 288.48 235.144 287.016 235.144C285.732 235.144 284.646 234.688 283.758 233.776C282.87 232.864 282.426 231.754 282.426 230.446C282.426 229.138 282.87 228.034 283.758 227.134C284.646 226.222 285.732 225.766 287.016 225.766C288.492 225.766 289.62 226.36 290.4 227.548V226ZM284.91 232.732C285.522 233.344 286.284 233.65 287.196 233.65C288.108 233.65 288.87 233.344 289.482 232.732C290.094 232.12 290.4 231.358 290.4 230.446C290.4 229.546 290.094 228.79 289.482 228.178C288.87 227.566 288.108 227.26 287.196 227.26C286.284 227.26 285.522 227.566 284.91 228.178C284.298 228.79 283.992 229.546 283.992 230.446C283.992 231.358 284.298 232.12 284.91 232.732ZM309.135 234.478L307.731 235.288L306.453 233.92C305.517 234.796 304.317 235.234 302.853 235.234C301.593 235.234 300.573 234.91 299.793 234.262C299.013 233.602 298.623 232.714 298.623 231.598C298.623 230.83 298.815 230.128 299.199 229.492C299.595 228.844 300.171 228.334 300.927 227.962C300.387 227.278 300.117 226.516 300.117 225.676C300.117 224.632 300.477 223.786 301.197 223.138C301.929 222.49 302.805 222.166 303.825 222.166C304.665 222.166 305.427 222.394 306.111 222.85C306.795 223.306 307.287 223.936 307.587 224.74L306.183 225.55C306.003 224.998 305.703 224.566 305.283 224.254C304.875 223.942 304.401 223.786 303.861 223.786C303.285 223.786 302.793 223.96 302.385 224.308C301.989 224.656 301.791 225.106 301.791 225.658C301.791 226.054 301.881 226.414 302.061 226.738C302.253 227.05 302.535 227.404 302.907 227.8L306.345 231.472C306.645 230.848 306.861 230.086 306.993 229.186L308.433 230.014C308.265 231.01 307.941 231.904 307.461 232.696L309.135 234.478ZM302.889 233.65C303.885 233.65 304.713 233.356 305.373 232.768L301.971 229.114C301.395 229.354 300.969 229.69 300.693 230.122C300.429 230.554 300.297 231.01 300.297 231.49C300.297 232.162 300.525 232.69 300.981 233.074C301.437 233.458 302.073 233.65 302.889 233.65ZM311.567 236.8H310.001C311.321 234.16 311.981 231.46 311.981 228.7C311.981 225.94 311.321 223.24 310.001 220.6H311.567C312.887 223.24 313.547 225.94 313.547 228.7C313.547 231.46 312.887 234.16 311.567 236.8ZM317.026 228.124C316.702 228.124 316.426 228.01 316.198 227.782C315.97 227.554 315.856 227.278 315.856 226.954C315.856 226.63 315.97 226.354 316.198 226.126C316.426 225.898 316.702 225.784 317.026 225.784C317.362 225.784 317.638 225.898 317.854 226.126C318.082 226.354 318.196 226.63 318.196 226.954C318.196 227.278 318.082 227.554 317.854 227.782C317.638 228.01 317.362 228.124 317.026 228.124ZM318.124 233.146L316.954 237.52H315.604L316.324 233.146H318.124Z" fill="white"/>
<path d="M126.918 52.766C128.178 52.766 129.252 53.228 130.14 54.152C131.028 55.064 131.472 56.18 131.472 57.5C131.472 58.82 131.028 59.942 130.14 60.866C129.252 61.778 128.178 62.234 126.918 62.234C125.43 62.234 124.296 61.64 123.516 60.452V62H121.95V49.4H123.516V54.548C124.296 53.36 125.43 52.766 126.918 52.766ZM126.72 60.722C127.62 60.722 128.376 60.416 128.988 59.804C129.6 59.18 129.906 58.412 129.906 57.5C129.906 56.588 129.6 55.826 128.988 55.214C128.376 54.59 127.62 54.278 126.72 54.278C125.808 54.278 125.046 54.59 124.434 55.214C123.822 55.826 123.516 56.588 123.516 57.5C123.516 58.412 123.822 59.18 124.434 59.804C125.046 60.416 125.808 60.722 126.72 60.722ZM134.132 51.362C133.832 51.362 133.58 51.26 133.376 51.056C133.172 50.852 133.07 50.606 133.07 50.318C133.07 50.03 133.172 49.784 133.376 49.58C133.58 49.364 133.832 49.256 134.132 49.256C134.42 49.256 134.666 49.364 134.87 49.58C135.074 49.784 135.176 50.03 135.176 50.318C135.176 50.606 135.074 50.852 134.87 51.056C134.666 51.26 134.42 51.362 134.132 51.362ZM133.34 62V53H134.906V62H133.34ZM142.191 54.512H139.797V59.39C139.797 59.834 139.881 60.152 140.049 60.344C140.229 60.524 140.499 60.62 140.859 60.632C141.219 60.632 141.663 60.62 142.191 60.596V62C140.823 62.18 139.821 62.072 139.185 61.676C138.549 61.268 138.231 60.506 138.231 59.39V54.512H136.449V53H138.231V50.948L139.797 50.48V53H142.191V54.512ZM144.956 55.43C144.956 55.778 145.13 56.06 145.478 56.276C145.826 56.48 146.246 56.648 146.738 56.78C147.23 56.9 147.722 57.044 148.214 57.212C148.706 57.368 149.126 57.644 149.474 58.04C149.822 58.424 149.996 58.922 149.996 59.534C149.996 60.35 149.678 61.004 149.042 61.496C148.418 61.988 147.614 62.234 146.63 62.234C145.754 62.234 145.004 62.042 144.38 61.658C143.756 61.274 143.312 60.764 143.048 60.128L144.398 59.354C144.542 59.786 144.812 60.128 145.208 60.38C145.604 60.632 146.078 60.758 146.63 60.758C147.146 60.758 147.572 60.662 147.908 60.47C148.244 60.266 148.412 59.954 148.412 59.534C148.412 59.186 148.238 58.91 147.89 58.706C147.542 58.49 147.122 58.322 146.63 58.202C146.138 58.07 145.646 57.92 145.154 57.752C144.662 57.584 144.242 57.308 143.894 56.924C143.546 56.54 143.372 56.048 143.372 55.448C143.372 54.668 143.672 54.026 144.272 53.522C144.884 53.018 145.646 52.766 146.558 52.766C147.29 52.766 147.938 52.934 148.502 53.27C149.078 53.594 149.51 54.05 149.798 54.638L148.484 55.376C148.16 54.608 147.518 54.224 146.558 54.224C146.114 54.224 145.736 54.332 145.424 54.548C145.112 54.752 144.956 55.046 144.956 55.43ZM152.282 63.8H151.346L158.546 47.6H159.482L152.282 63.8ZM162.71 55.43C162.71 55.778 162.884 56.06 163.232 56.276C163.58 56.48 164 56.648 164.492 56.78C164.984 56.9 165.476 57.044 165.968 57.212C166.46 57.368 166.88 57.644 167.228 58.04C167.576 58.424 167.75 58.922 167.75 59.534C167.75 60.35 167.432 61.004 166.796 61.496C166.172 61.988 165.368 62.234 164.384 62.234C163.508 62.234 162.758 62.042 162.134 61.658C161.51 61.274 161.066 60.764 160.802 60.128L162.152 59.354C162.296 59.786 162.566 60.128 162.962 60.38C163.358 60.632 163.832 60.758 164.384 60.758C164.9 60.758 165.326 60.662 165.662 60.47C165.998 60.266 166.166 59.954 166.166 59.534C166.166 59.186 165.992 58.91 165.644 58.706C165.296 58.49 164.876 58.322 164.384 58.202C163.892 58.07 163.4 57.92 162.908 57.752C162.416 57.584 161.996 57.308 161.648 56.924C161.3 56.54 161.126 56.048 161.126 55.448C161.126 54.668 161.426 54.026 162.026 53.522C162.638 53.018 163.4 52.766 164.312 52.766C165.044 52.766 165.692 52.934 166.256 53.27C166.832 53.594 167.264 54.05 167.552 54.638L166.238 55.376C165.914 54.608 165.272 54.224 164.312 54.224C163.868 54.224 163.49 54.332 163.178 54.548C162.866 54.752 162.71 55.046 162.71 55.43ZM174.148 54.512H171.754V59.39C171.754 59.834 171.838 60.152 172.006 60.344C172.186 60.524 172.456 60.62 172.816 60.632C173.176 60.632 173.62 60.62 174.148 60.596V62C172.78 62.18 171.778 62.072 171.142 61.676C170.506 61.268 170.188 60.506 170.188 59.39V54.512H168.406V53H170.188V50.948L171.754 50.48V53H174.148V54.512ZM182.997 49.4H184.563V62H182.997V60.452C182.217 61.64 181.083 62.234 179.595 62.234C178.335 62.234 177.261 61.778 176.373 60.866C175.485 59.942 175.041 58.82 175.041 57.5C175.041 56.18 175.485 55.064 176.373 54.152C177.261 53.228 178.335 52.766 179.595 52.766C181.083 52.766 182.217 53.36 182.997 54.548V49.4ZM179.793 60.722C180.705 60.722 181.467 60.416 182.079 59.804C182.691 59.18 182.997 58.412 182.997 57.5C182.997 56.588 182.691 55.826 182.079 55.214C181.467 54.59 180.705 54.278 179.793 54.278C178.893 54.278 178.137 54.59 177.525 55.214C176.913 55.826 176.607 56.588 176.607 57.5C176.607 58.412 176.913 59.18 177.525 59.804C178.137 60.416 178.893 60.722 179.793 60.722ZM191.166 62.234C189.81 62.234 188.682 61.784 187.782 60.884C186.882 59.972 186.432 58.844 186.432 57.5C186.432 56.156 186.882 55.034 187.782 54.134C188.682 53.222 189.81 52.766 191.166 52.766C192.054 52.766 192.852 52.982 193.56 53.414C194.268 53.834 194.796 54.404 195.144 55.124L193.83 55.88C193.602 55.4 193.248 55.016 192.768 54.728C192.3 54.44 191.766 54.296 191.166 54.296C190.266 54.296 189.51 54.602 188.898 55.214C188.298 55.826 187.998 56.588 187.998 57.5C187.998 58.4 188.298 59.156 188.898 59.768C189.51 60.38 190.266 60.686 191.166 60.686C191.766 60.686 192.306 60.548 192.786 60.272C193.266 59.984 193.632 59.6 193.884 59.12L195.216 59.894C194.832 60.602 194.28 61.172 193.56 61.604C192.84 62.024 192.042 62.234 191.166 62.234ZM204.376 54.944V56.438H201.244V59.57H199.75V56.438H196.636V54.944H199.75V51.83H201.244V54.944H204.376ZM214.184 54.944V56.438H211.052V59.57H209.558V56.438H206.444V54.944H209.558V51.83H211.052V54.944H214.184ZM217.387 62.198C217.063 62.198 216.787 62.084 216.559 61.856C216.331 61.628 216.217 61.352 216.217 61.028C216.217 60.704 216.331 60.428 216.559 60.2C216.787 59.972 217.063 59.858 217.387 59.858C217.723 59.858 217.999 59.972 218.215 60.2C218.443 60.428 218.557 60.704 218.557 61.028C218.557 61.352 218.443 61.628 218.215 61.856C217.999 62.084 217.723 62.198 217.387 62.198ZM225.256 52.766C226.312 52.766 227.158 53.102 227.794 53.774C228.43 54.434 228.748 55.334 228.748 56.474V62H227.182V56.564C227.182 55.832 226.984 55.268 226.588 54.872C226.192 54.464 225.646 54.26 224.95 54.26C224.17 54.26 223.54 54.506 223.06 54.998C222.58 55.478 222.34 56.222 222.34 57.23V62H220.774V49.4H222.34V54.296C222.976 53.276 223.948 52.766 225.256 52.766ZM132.965 166.234C131.609 166.234 130.481 165.784 129.581 164.884C128.681 163.972 128.231 162.844 128.231 161.5C128.231 160.156 128.681 159.034 129.581 158.134C130.481 157.222 131.609 156.766 132.965 156.766C133.853 156.766 134.651 156.982 135.359 157.414C136.067 157.834 136.595 158.404 136.943 159.124L135.629 159.88C135.401 159.4 135.047 159.016 134.567 158.728C134.099 158.44 133.565 158.296 132.965 158.296C132.065 158.296 131.309 158.602 130.697 159.214C130.097 159.826 129.797 160.588 129.797 161.5C129.797 162.4 130.097 163.156 130.697 163.768C131.309 164.38 132.065 164.686 132.965 164.686C133.565 164.686 134.105 164.548 134.585 164.272C135.065 163.984 135.431 163.6 135.683 163.12L137.015 163.894C136.631 164.602 136.079 165.172 135.359 165.604C134.639 166.024 133.841 166.234 132.965 166.234ZM146.034 164.866C145.11 165.778 143.988 166.234 142.668 166.234C141.348 166.234 140.226 165.778 139.302 164.866C138.39 163.954 137.934 162.832 137.934 161.5C137.934 160.168 138.39 159.046 139.302 158.134C140.226 157.222 141.348 156.766 142.668 156.766C143.988 156.766 145.11 157.222 146.034 158.134C146.958 159.046 147.42 160.168 147.42 161.5C147.42 162.832 146.958 163.954 146.034 164.866ZM142.668 164.704C143.568 164.704 144.324 164.398 144.936 163.786C145.548 163.174 145.854 162.412 145.854 161.5C145.854 160.588 145.548 159.826 144.936 159.214C144.324 158.602 143.568 158.296 142.668 158.296C141.78 158.296 141.03 158.602 140.418 159.214C139.806 159.826 139.5 160.588 139.5 161.5C139.5 162.412 139.806 163.174 140.418 163.786C141.03 164.398 141.78 164.704 142.668 164.704ZM153.748 156.766C154.804 156.766 155.65 157.102 156.286 157.774C156.922 158.434 157.24 159.334 157.24 160.474V166H155.674V160.564C155.674 159.832 155.476 159.268 155.08 158.872C154.684 158.464 154.138 158.26 153.442 158.26C152.662 158.26 152.032 158.506 151.552 158.998C151.072 159.478 150.832 160.222 150.832 161.23V166H149.266V157H150.832V158.296C151.468 157.276 152.44 156.766 153.748 156.766ZM160.776 159.43C160.776 159.778 160.95 160.06 161.298 160.276C161.646 160.48 162.066 160.648 162.558 160.78C163.05 160.9 163.542 161.044 164.034 161.212C164.526 161.368 164.946 161.644 165.294 162.04C165.642 162.424 165.816 162.922 165.816 163.534C165.816 164.35 165.498 165.004 164.862 165.496C164.238 165.988 163.434 166.234 162.45 166.234C161.574 166.234 160.824 166.042 160.2 165.658C159.576 165.274 159.132 164.764 158.868 164.128L160.218 163.354C160.362 163.786 160.632 164.128 161.028 164.38C161.424 164.632 161.898 164.758 162.45 164.758C162.966 164.758 163.392 164.662 163.728 164.47C164.064 164.266 164.232 163.954 164.232 163.534C164.232 163.186 164.058 162.91 163.71 162.706C163.362 162.49 162.942 162.322 162.45 162.202C161.958 162.07 161.466 161.92 160.974 161.752C160.482 161.584 160.062 161.308 159.714 160.924C159.366 160.54 159.192 160.048 159.192 159.448C159.192 158.668 159.492 158.026 160.092 157.522C160.704 157.018 161.466 156.766 162.378 156.766C163.11 156.766 163.758 156.934 164.322 157.27C164.898 157.594 165.33 158.05 165.618 158.638L164.304 159.376C163.98 158.608 163.338 158.224 162.378 158.224C161.934 158.224 161.556 158.332 161.244 158.548C160.932 158.752 160.776 159.046 160.776 159.43ZM172.215 158.512H169.821V163.39C169.821 163.834 169.905 164.152 170.073 164.344C170.253 164.524 170.523 164.62 170.883 164.632C171.243 164.632 171.687 164.62 172.215 164.596V166C170.847 166.18 169.845 166.072 169.209 165.676C168.573 165.268 168.255 164.506 168.255 163.39V158.512H166.473V157H168.255V154.948L169.821 154.48V157H172.215V158.512ZM135.127 200.234C133.771 200.234 132.643 199.784 131.743 198.884C130.843 197.972 130.393 196.844 130.393 195.5C130.393 194.156 130.843 193.034 131.743 192.134C132.643 191.222 133.771 190.766 135.127 190.766C136.015 190.766 136.813 190.982 137.521 191.414C138.229 191.834 138.757 192.404 139.105 193.124L137.791 193.88C137.563 193.4 137.209 193.016 136.729 192.728C136.261 192.44 135.727 192.296 135.127 192.296C134.227 192.296 133.471 192.602 132.859 193.214C132.259 193.826 131.959 194.588 131.959 195.5C131.959 196.4 132.259 197.156 132.859 197.768C133.471 198.38 134.227 198.686 135.127 198.686C135.727 198.686 136.267 198.548 136.747 198.272C137.227 197.984 137.593 197.6 137.845 197.12L139.177 197.894C138.793 198.602 138.241 199.172 137.521 199.604C136.801 200.024 136.003 200.234 135.127 200.234ZM148.196 198.866C147.272 199.778 146.15 200.234 144.83 200.234C143.51 200.234 142.388 199.778 141.464 198.866C140.552 197.954 140.096 196.832 140.096 195.5C140.096 194.168 140.552 193.046 141.464 192.134C142.388 191.222 143.51 190.766 144.83 190.766C146.15 190.766 147.272 191.222 148.196 192.134C149.12 193.046 149.582 194.168 149.582 195.5C149.582 196.832 149.12 197.954 148.196 198.866ZM144.83 198.704C145.73 198.704 146.486 198.398 147.098 197.786C147.71 197.174 148.016 196.412 148.016 195.5C148.016 194.588 147.71 193.826 147.098 193.214C146.486 192.602 145.73 192.296 144.83 192.296C143.942 192.296 143.192 192.602 142.58 193.214C141.968 193.826 141.662 194.588 141.662 195.5C141.662 196.412 141.968 197.174 142.58 197.786C143.192 198.398 143.942 198.704 144.83 198.704ZM155.91 190.766C156.966 190.766 157.812 191.102 158.448 191.774C159.084 192.434 159.402 193.334 159.402 194.474V200H157.836V194.564C157.836 193.832 157.638 193.268 157.242 192.872C156.846 192.464 156.3 192.26 155.604 192.26C154.824 192.26 154.194 192.506 153.714 192.998C153.234 193.478 152.994 194.222 152.994 195.23V200H151.428V191H152.994V192.296C153.63 191.276 154.602 190.766 155.91 190.766ZM162.938 193.43C162.938 193.778 163.112 194.06 163.46 194.276C163.808 194.48 164.228 194.648 164.72 194.78C165.212 194.9 165.704 195.044 166.196 195.212C166.688 195.368 167.108 195.644 167.456 196.04C167.804 196.424 167.978 196.922 167.978 197.534C167.978 198.35 167.66 199.004 167.024 199.496C166.4 199.988 165.596 200.234 164.612 200.234C163.736 200.234 162.986 200.042 162.362 199.658C161.738 199.274 161.294 198.764 161.03 198.128L162.38 197.354C162.524 197.786 162.794 198.128 163.19 198.38C163.586 198.632 164.06 198.758 164.612 198.758C165.128 198.758 165.554 198.662 165.89 198.47C166.226 198.266 166.394 197.954 166.394 197.534C166.394 197.186 166.22 196.91 165.872 196.706C165.524 196.49 165.104 196.322 164.612 196.202C164.12 196.07 163.628 195.92 163.136 195.752C162.644 195.584 162.224 195.308 161.876 194.924C161.528 194.54 161.354 194.048 161.354 193.448C161.354 192.668 161.654 192.026 162.254 191.522C162.866 191.018 163.628 190.766 164.54 190.766C165.272 190.766 165.92 190.934 166.484 191.27C167.06 191.594 167.492 192.05 167.78 192.638L166.466 193.376C166.142 192.608 165.5 192.224 164.54 192.224C164.096 192.224 163.718 192.332 163.406 192.548C163.094 192.752 162.938 193.046 162.938 193.43ZM174.377 192.512H171.983V197.39C171.983 197.834 172.067 198.152 172.235 198.344C172.415 198.524 172.685 198.62 173.045 198.632C173.405 198.632 173.849 198.62 174.377 198.596V200C173.009 200.18 172.007 200.072 171.371 199.676C170.735 199.268 170.417 198.506 170.417 197.39V192.512H168.635V191H170.417V188.948L171.983 188.48V191H174.377V192.512ZM202.557 235.234C201.201 235.234 200.073 234.784 199.173 233.884C198.273 232.972 197.823 231.844 197.823 230.5C197.823 229.156 198.273 228.034 199.173 227.134C200.073 226.222 201.201 225.766 202.557 225.766C203.445 225.766 204.243 225.982 204.951 226.414C205.659 226.834 206.187 227.404 206.535 228.124L205.221 228.88C204.993 228.4 204.639 228.016 204.159 227.728C203.691 227.44 203.157 227.296 202.557 227.296C201.657 227.296 200.901 227.602 200.289 228.214C199.689 228.826 199.389 229.588 199.389 230.5C199.389 231.4 199.689 232.156 200.289 232.768C200.901 233.38 201.657 233.686 202.557 233.686C203.157 233.686 203.697 233.548 204.177 233.272C204.657 232.984 205.023 232.6 205.275 232.12L206.607 232.894C206.223 233.602 205.671 234.172 204.951 234.604C204.231 235.024 203.433 235.234 202.557 235.234ZM215.626 233.866C214.702 234.778 213.58 235.234 212.26 235.234C210.94 235.234 209.818 234.778 208.894 233.866C207.982 232.954 207.526 231.832 207.526 230.5C207.526 229.168 207.982 228.046 208.894 227.134C209.818 226.222 210.94 225.766 212.26 225.766C213.58 225.766 214.702 226.222 215.626 227.134C216.55 228.046 217.012 229.168 217.012 230.5C217.012 231.832 216.55 232.954 215.626 233.866ZM212.26 233.704C213.16 233.704 213.916 233.398 214.528 232.786C215.14 232.174 215.446 231.412 215.446 230.5C215.446 229.588 215.14 228.826 214.528 228.214C213.916 227.602 213.16 227.296 212.26 227.296C211.372 227.296 210.622 227.602 210.01 228.214C209.398 228.826 209.092 229.588 209.092 230.5C209.092 231.412 209.398 232.174 210.01 232.786C210.622 233.398 211.372 233.704 212.26 233.704ZM223.34 225.766C224.396 225.766 225.242 226.102 225.878 226.774C226.514 227.434 226.832 228.334 226.832 229.474V235H225.266V229.564C225.266 228.832 225.068 228.268 224.672 227.872C224.276 227.464 223.73 227.26 223.034 227.26C222.254 227.26 221.624 227.506 221.144 227.998C220.664 228.478 220.424 229.222 220.424 230.23V235H218.858V226H220.424V227.296C221.06 226.276 222.032 225.766 223.34 225.766ZM230.368 228.43C230.368 228.778 230.542 229.06 230.89 229.276C231.238 229.48 231.658 229.648 232.15 229.78C232.642 229.9 233.134 230.044 233.626 230.212C234.118 230.368 234.538 230.644 234.886 231.04C235.234 231.424 235.408 231.922 235.408 232.534C235.408 233.35 235.09 234.004 234.454 234.496C233.83 234.988 233.026 235.234 232.042 235.234C231.166 235.234 230.416 235.042 229.792 234.658C229.168 234.274 228.724 233.764 228.46 233.128L229.81 232.354C229.954 232.786 230.224 233.128 230.62 233.38C231.016 233.632 231.49 233.758 232.042 233.758C232.558 233.758 232.984 233.662 233.32 233.47C233.656 233.266 233.824 232.954 233.824 232.534C233.824 232.186 233.65 231.91 233.302 231.706C232.954 231.49 232.534 231.322 232.042 231.202C231.55 231.07 231.058 230.92 230.566 230.752C230.074 230.584 229.654 230.308 229.306 229.924C228.958 229.54 228.784 229.048 228.784 228.448C228.784 227.668 229.084 227.026 229.684 226.522C230.296 226.018 231.058 225.766 231.97 225.766C232.702 225.766 233.35 225.934 233.914 226.27C234.49 226.594 234.922 227.05 235.21 227.638L233.896 228.376C233.572 227.608 232.93 227.224 231.97 227.224C231.526 227.224 231.148 227.332 230.836 227.548C230.524 227.752 230.368 228.046 230.368 228.43ZM241.807 227.512H239.413V232.39C239.413 232.834 239.497 233.152 239.665 233.344C239.845 233.524 240.115 233.62 240.475 233.632C240.835 233.632 241.279 233.62 241.807 233.596V235C240.439 235.18 239.437 235.072 238.801 234.676C238.165 234.268 237.847 233.506 237.847 232.39V227.512H236.065V226H237.847V223.948L239.413 223.48V226H241.807V227.512Z" fill="#998EE1"/>
<path d="M43.398 88H44.964V97H43.398V95.704C42.762 96.724 41.79 97.234 40.482 97.234C39.426 97.234 38.58 96.904 37.944 96.244C37.308 95.572 36.99 94.666 36.99 93.526V88H38.556V93.436C38.556 94.168 38.754 94.738 39.15 95.146C39.546 95.542 40.092 95.74 40.788 95.74C41.568 95.74 42.198 95.5 42.678 95.02C43.158 94.528 43.398 93.778 43.398 92.77V88ZM48.6806 90.43C48.6806 90.778 48.8546 91.06 49.2026 91.276C49.5506 91.48 49.9706 91.648 50.4626 91.78C50.9546 91.9 51.4466 92.044 51.9386 92.212C52.4306 92.368 52.8506 92.644 53.1986 93.04C53.5466 93.424 53.7206 93.922 53.7206 94.534C53.7206 95.35 53.4026 96.004 52.7666 96.496C52.1426 96.988 51.3386 97.234 50.3546 97.234C49.4786 97.234 48.7286 97.042 48.1046 96.658C47.4806 96.274 47.0366 95.764 46.7726 95.128L48.1226 94.354C48.2666 94.786 48.5366 95.128 48.9326 95.38C49.3286 95.632 49.8026 95.758 50.3546 95.758C50.8706 95.758 51.2966 95.662 51.6326 95.47C51.9686 95.266 52.1366 94.954 52.1366 94.534C52.1366 94.186 51.9626 93.91 51.6146 93.706C51.2666 93.49 50.8466 93.322 50.3546 93.202C49.8626 93.07 49.3706 92.92 48.8786 92.752C48.3866 92.584 47.9666 92.308 47.6186 91.924C47.2706 91.54 47.0966 91.048 47.0966 90.448C47.0966 89.668 47.3966 89.026 47.9966 88.522C48.6086 88.018 49.3706 87.766 50.2826 87.766C51.0146 87.766 51.6626 87.934 52.2266 88.27C52.8026 88.594 53.2346 89.05 53.5226 89.638L52.2086 90.376C51.8846 89.608 51.2426 89.224 50.2826 89.224C49.8386 89.224 49.4606 89.332 49.1486 89.548C48.8366 89.752 48.6806 90.046 48.6806 90.43ZM56.2788 86.362C55.9788 86.362 55.7268 86.26 55.5228 86.056C55.3188 85.852 55.2168 85.606 55.2168 85.318C55.2168 85.03 55.3188 84.784 55.5228 84.58C55.7268 84.364 55.9788 84.256 56.2788 84.256C56.5668 84.256 56.8128 84.364 57.0168 84.58C57.2208 84.784 57.3228 85.03 57.3228 85.318C57.3228 85.606 57.2208 85.852 57.0168 86.056C56.8128 86.26 56.5668 86.362 56.2788 86.362ZM55.4868 97V88H57.0528V97H55.4868ZM63.9239 87.766C64.9799 87.766 65.8259 88.102 66.4619 88.774C67.0979 89.434 67.4159 90.334 67.4159 91.474V97H65.8499V91.564C65.8499 90.832 65.6519 90.268 65.2559 89.872C64.8599 89.464 64.3139 89.26 63.6179 89.26C62.8379 89.26 62.2079 89.506 61.7279 89.998C61.2479 90.478 61.0079 91.222 61.0079 92.23V97H59.4419V88H61.0079V89.296C61.6439 88.276 62.6159 87.766 63.9239 87.766ZM77.0721 88H78.6201V96.622C78.6201 97.954 78.1701 98.986 77.2701 99.718C76.3701 100.462 75.2901 100.834 74.0301 100.834C73.0221 100.834 72.1521 100.642 71.4201 100.258C70.6881 99.886 70.1361 99.346 69.7641 98.638L71.1321 97.864C71.6241 98.872 72.6021 99.376 74.0661 99.376C75.0021 99.376 75.7341 99.13 76.2621 98.638C76.8021 98.146 77.0721 97.474 77.0721 96.622V95.344C76.2801 96.544 75.1521 97.144 73.6881 97.144C72.4041 97.144 71.3181 96.688 70.4301 95.776C69.5421 94.864 69.0981 93.754 69.0981 92.446C69.0981 91.138 69.5421 90.034 70.4301 89.134C71.3181 88.222 72.4041 87.766 73.6881 87.766C75.1641 87.766 76.2921 88.36 77.0721 89.548V88ZM71.5821 94.732C72.1941 95.344 72.9561 95.65 73.8681 95.65C74.7801 95.65 75.5421 95.344 76.1541 94.732C76.7661 94.12 77.0721 93.358 77.0721 92.446C77.0721 91.546 76.7661 90.79 76.1541 90.178C75.5421 89.566 74.7801 89.26 73.8681 89.26C72.9561 89.26 72.1941 89.566 71.5821 90.178C70.9701 90.79 70.6641 91.546 70.6641 92.446C70.6641 93.358 70.9701 94.12 71.5821 94.732ZM89.9747 87.766C91.0307 87.766 91.8767 88.102 92.5127 88.774C93.1487 89.434 93.4667 90.334 93.4667 91.474V97H91.9007V91.564C91.9007 90.832 91.7027 90.268 91.3067 89.872C90.9107 89.464 90.3647 89.26 89.6687 89.26C88.8887 89.26 88.2587 89.506 87.7787 89.998C87.2987 90.478 87.0587 91.222 87.0587 92.23V97H85.4927V88H87.0587V89.296C87.6947 88.276 88.6667 87.766 89.9747 87.766ZM103.105 88H104.671V97H103.105V95.452C102.325 96.64 101.191 97.234 99.7028 97.234C98.4428 97.234 97.3688 96.778 96.4808 95.866C95.5928 94.942 95.1488 93.82 95.1488 92.5C95.1488 91.18 95.5928 90.064 96.4808 89.152C97.3688 88.228 98.4428 87.766 99.7028 87.766C101.191 87.766 102.325 88.36 103.105 89.548V88ZM99.9008 95.722C100.813 95.722 101.575 95.416 102.187 94.804C102.799 94.18 103.105 93.412 103.105 92.5C103.105 91.588 102.799 90.826 102.187 90.214C101.575 89.59 100.813 89.278 99.9008 89.278C99.0008 89.278 98.2448 89.59 97.6328 90.214C97.0208 90.826 96.7148 91.588 96.7148 92.5C96.7148 93.412 97.0208 94.18 97.6328 94.804C98.2448 95.416 99.0008 95.722 99.9008 95.722ZM116.763 87.766C117.771 87.766 118.587 88.096 119.211 88.756C119.835 89.404 120.147 90.286 120.147 91.402V97H118.581V91.456C118.581 90.76 118.401 90.22 118.041 89.836C117.681 89.452 117.201 89.26 116.601 89.26C115.929 89.26 115.389 89.488 114.981 89.944C114.585 90.388 114.387 91.072 114.387 91.996V97H112.821V91.456C112.821 90.76 112.647 90.22 112.299 89.836C111.963 89.452 111.501 89.26 110.913 89.26C110.253 89.26 109.701 89.488 109.257 89.944C108.825 90.4 108.609 91.084 108.609 91.996V97H107.043V88H108.609V89.206C109.221 88.246 110.115 87.766 111.291 87.766C112.503 87.766 113.385 88.276 113.937 89.296C114.561 88.276 115.503 87.766 116.763 87.766ZM123.417 93.22C123.573 94.024 123.939 94.648 124.515 95.092C125.103 95.536 125.823 95.758 126.675 95.758C127.863 95.758 128.727 95.32 129.267 94.444L130.599 95.2C129.723 96.556 128.403 97.234 126.639 97.234C125.211 97.234 124.047 96.79 123.147 95.902C122.259 95.002 121.815 93.868 121.815 92.5C121.815 91.144 122.253 90.016 123.129 89.116C124.005 88.216 125.139 87.766 126.531 87.766C127.851 87.766 128.925 88.234 129.753 89.17C130.593 90.094 131.013 91.21 131.013 92.518C131.013 92.746 130.995 92.98 130.959 93.22H123.417ZM126.531 89.242C125.691 89.242 124.995 89.482 124.443 89.962C123.891 90.43 123.549 91.06 123.417 91.852H129.429C129.297 91 128.961 90.352 128.421 89.908C127.881 89.464 127.251 89.242 126.531 89.242ZM133.811 90.43C133.811 90.778 133.985 91.06 134.333 91.276C134.681 91.48 135.101 91.648 135.593 91.78C136.085 91.9 136.577 92.044 137.069 92.212C137.561 92.368 137.981 92.644 138.329 93.04C138.677 93.424 138.851 93.922 138.851 94.534C138.851 95.35 138.533 96.004 137.897 96.496C137.273 96.988 136.469 97.234 135.485 97.234C134.609 97.234 133.859 97.042 133.235 96.658C132.611 96.274 132.167 95.764 131.903 95.128L133.253 94.354C133.397 94.786 133.667 95.128 134.063 95.38C134.459 95.632 134.933 95.758 135.485 95.758C136.001 95.758 136.427 95.662 136.763 95.47C137.099 95.266 137.267 94.954 137.267 94.534C137.267 94.186 137.093 93.91 136.745 93.706C136.397 93.49 135.977 93.322 135.485 93.202C134.993 93.07 134.501 92.92 134.009 92.752C133.517 92.584 133.097 92.308 132.749 91.924C132.401 91.54 132.227 91.048 132.227 90.448C132.227 89.668 132.527 89.026 133.127 88.522C133.739 88.018 134.501 87.766 135.413 87.766C136.145 87.766 136.793 87.934 137.357 88.27C137.933 88.594 138.365 89.05 138.653 89.638L137.339 90.376C137.015 89.608 136.373 89.224 135.413 89.224C134.969 89.224 134.591 89.332 134.279 89.548C133.967 89.752 133.811 90.046 133.811 90.43ZM145.674 87.766C146.934 87.766 148.008 88.228 148.896 89.152C149.784 90.064 150.228 91.18 150.228 92.5C150.228 93.82 149.784 94.942 148.896 95.866C148.008 96.778 146.934 97.234 145.674 97.234C144.186 97.234 143.052 96.64 142.272 95.452V100.6H140.706V88H142.272V89.548C143.052 88.36 144.186 87.766 145.674 87.766ZM145.476 95.722C146.376 95.722 147.132 95.416 147.744 94.804C148.356 94.18 148.662 93.412 148.662 92.5C148.662 91.588 148.356 90.826 147.744 90.214C147.132 89.59 146.376 89.278 145.476 89.278C144.564 89.278 143.802 89.59 143.19 90.214C142.578 90.826 142.272 91.588 142.272 92.5C142.272 93.412 142.578 94.18 143.19 94.804C143.802 95.416 144.564 95.722 145.476 95.722ZM159.548 88H161.114V97H159.548V95.452C158.768 96.64 157.634 97.234 156.146 97.234C154.886 97.234 153.812 96.778 152.924 95.866C152.036 94.942 151.592 93.82 151.592 92.5C151.592 91.18 152.036 90.064 152.924 89.152C153.812 88.228 154.886 87.766 156.146 87.766C157.634 87.766 158.768 88.36 159.548 89.548V88ZM156.344 95.722C157.256 95.722 158.018 95.416 158.63 94.804C159.242 94.18 159.548 93.412 159.548 92.5C159.548 91.588 159.242 90.826 158.63 90.214C158.018 89.59 157.256 89.278 156.344 89.278C155.444 89.278 154.688 89.59 154.076 90.214C153.464 90.826 153.158 91.588 153.158 92.5C153.158 93.412 153.464 94.18 154.076 94.804C154.688 95.416 155.444 95.722 156.344 95.722ZM167.717 97.234C166.361 97.234 165.233 96.784 164.333 95.884C163.433 94.972 162.983 93.844 162.983 92.5C162.983 91.156 163.433 90.034 164.333 89.134C165.233 88.222 166.361 87.766 167.717 87.766C168.605 87.766 169.403 87.982 170.111 88.414C170.819 88.834 171.347 89.404 171.695 90.124L170.381 90.88C170.153 90.4 169.799 90.016 169.319 89.728C168.851 89.44 168.317 89.296 167.717 89.296C166.817 89.296 166.061 89.602 165.449 90.214C164.849 90.826 164.549 91.588 164.549 92.5C164.549 93.4 164.849 94.156 165.449 94.768C166.061 95.38 166.817 95.686 167.717 95.686C168.317 95.686 168.857 95.548 169.337 95.272C169.817 94.984 170.183 94.6 170.435 94.12L171.767 94.894C171.383 95.602 170.831 96.172 170.111 96.604C169.391 97.024 168.593 97.234 167.717 97.234ZM174.288 93.22C174.444 94.024 174.81 94.648 175.386 95.092C175.974 95.536 176.694 95.758 177.546 95.758C178.734 95.758 179.598 95.32 180.138 94.444L181.47 95.2C180.594 96.556 179.274 97.234 177.51 97.234C176.082 97.234 174.918 96.79 174.018 95.902C173.13 95.002 172.686 93.868 172.686 92.5C172.686 91.144 173.124 90.016 174 89.116C174.876 88.216 176.01 87.766 177.402 87.766C178.722 87.766 179.796 88.234 180.624 89.17C181.464 90.094 181.884 91.21 181.884 92.518C181.884 92.746 181.866 92.98 181.83 93.22H174.288ZM177.402 89.242C176.562 89.242 175.866 89.482 175.314 89.962C174.762 90.43 174.42 91.06 174.288 91.852H180.3C180.168 91 179.832 90.352 179.292 89.908C178.752 89.464 178.122 89.242 177.402 89.242Z" fill="#DAACAC"/>
<rect x="973" y="82" width="7" height="124" rx="3.5" fill="#1D212E"/>
</svg>
